<?xml version="1.0" encoding="UTF-8"?>
<svg id="Capa_2" data-name="Capa 2" xmlns="http://www.w3.org/2000/svg" viewBox="0 0 1150.08 724.09">
  <defs>
    <style>
      .cls-1 {
        fill: #e3a941;
      }

      .cls-2 {
        fill: #32302b;
      }
    </style>
  </defs>
  <g id="Capa_1-2" data-name="Capa 1">
    <g>
      <path class="cls-2" d="M39.84.35l1067.75-.35c22.76.35,41.47,20.11,42.49,42.51v639.08c-1.03,22.76-19.7,41.61-42.5,42.5H44.49c-24.76-1.6-42.1-17.7-44.49-42.5V43.51C.64,21.43,17.67,2.2,39.84.35ZM1069.04,85.05c-.07-1.87.69-10-1.5-10h-90.5v15.5l74.01,28.01-2.45,2.55-71.56,27.44v15.5h92v-8h-80.5c-.21,0-1.82-1.68-1.5-1.99l81.41-29.9c1.09-.76,1.02-6.53,0-7.23l-78.69-29.1-1.72-2.78h81ZM156.04,224.05h18.5l26.48-31.52.08-94.87c-42.54-22.2-90.85,16.88-74.34,63.17,6.75,18.93,23.26,30.59,42.79,33.21,2.06.28,9.01-.89,9.49,1.54l-23,28.48ZM313.83,92.34c-89.86,3.71-79.37,138.85,7.7,131.69,11.67-.96,25-6.66,34.34-13.65l.16-103.84c.02-.88-.44-1.4-.99-2.01-.58-.64-13.3-7.63-14.81-8.19-7.74-2.87-18.23-4.34-26.41-4ZM422.38,109.39c-45.36,42.19-10.35,121.92,51.91,114.4,11.46-1.38,22.21-5.96,31.74-12.25l.09-107.07c-20.08-13.93-44.75-15.91-67.06-5.91-4.02,1.8-13.54,7.91-16.68,10.83ZM103.04,94.05c-3.9.64-6.78,5.12-11,6v124h11V94.05ZM209.04,181.05c24.11-18.92,22.76-57.47,0-77v77ZM83.04,224.05v-117c-3.1,3.1-29,18.72-29,20.5v15.5c2.39.57,13-10.46,13-5.5v86.5h16ZM364.04,203.05c20.64-21.08,23.13-53.8,8.65-79.15l-8.65-10.85v90ZM516.04,202.05c23.1-23.42,22.81-64.55,0-88v88ZM977.04,251.05h67.5c5.32,0,15.38-4.89,18.92-9.08,15.14-17.93,5.31-53.92-20.92-53.92h-65.5v8h67.5c1.87,0,10.26,4.39,11.9,6.1,8.53,8.87,7.74,30-3.47,36.33-.77.43-7.04,2.57-7.43,2.57h-68.5v10ZM67.04,232.05v68h10v-44c11.23,13.38,19.81,29.19,30,43.5l14,.5v-68h-13v44c-2.33.56-1.65-.45-2.29-1.27-9.97-12.7-17.98-28.95-28.14-41.8-2.66-1.92-7.33-.57-10.57-.93ZM149.04,232.05h-12v68h12v-68ZM233.04,267.05h-33v11h20c-5.98,13.3-24.05,16.45-35.5,8-15.35-11.33-12.37-36.52,5.95-43.05,7-2.5,17.49-2.23,23.51,2.58,6.41,5.13,3.36,9.02,12.04-1.52-5.69-3.45-10.03-8.49-16.98-10.54-35.32-10.41-59.18,35.2-31.93,57.93,22.51,18.78,54.25,3.92,55.91-24.41ZM259.04,232.05h-12v68h12v-30h23.5c.11,0,1.5,1.39,1.5,1.5v28.5h12v-68h-12v25.5c0,.11-1.39,1.5-1.5,1.5h-22c-.11,0-1.5-1.39-1.5-1.5v-25.5ZM344.04,232.05h-37v11.01c2.13.2,12-.89,12,1.49v55.5h12v-55.5c0-2.45,10.75-1.25,13.01-1.49v-11.01ZM394.04,232.05h-12v68h32v-10h-18.5c-.11,0-1.5-1.39-1.5-1.5v-56.5ZM436.04,232.05h-12v68h12v-68ZM486.04,232.05h-34v68h11v-29.5c0-.11,1.39-1.5,1.5-1.5h21.5v-10h-21.5c-2.52,0-1.66-13.57-.5-16h22v-11ZM536.04,232.05h-37v68h37v-10h-24.5c-.11,0-1.5-1.39-1.5-1.5v-18c0-.11,1.39-1.5,1.5-1.5h24.5v-11h-24.5c-2.26,0-2.26-15,0-15h24.5v-11ZM1069.04,275.05h-92v10h90.5c2.19,0,1.43-8.12,1.5-10ZM1069.04,310.05h-92v16l71,25.5,3.01,2.99-74.01,27.51v17h90.5c2.14,0,2.14-9,0-9h-80.5l80.32-31.18c2.66-1.2,1.69-5.09,1.57-7.72l-80.89-29.12v-2.98h81v-9ZM418.04,415.05c-33.59-6.8-73.19.69-77.72,40.78-3.74,33.14,18.03,51.02,49.38,52.16,6.07-1.91,18.13.09,23.36-2.42,2.69-1.3,2.82-10.43,2.99-13.51-27.98,8.23-60.48.86-56.99-34.49,2.93-29.69,34.44-37.37,58.99-28.51v-14ZM604.8,413.3c-55.88,7-61.13,85.8-3.14,93.63,30.04,4.05,60.54-9.04,63.42-42.35,3.27-37.83-25.23-55.67-60.28-51.28ZM124.54,414.05h-52.5l-3,92h49.5c2.16,0,9.68-1.99,12.02-2.98,15.91-6.69,18.87-32.13,3.83-40.87-2.61-1.52-8.06-1.84-8.36-2.15-2.43-2.58,2.47-3.17,3.69-3.77,11.69-5.71,15.8-15.98,12.25-28.66-2.17-7.74-9.68-12.52-17.44-13.56ZM185.04,414.05h-20c-.42,30.67-1.31,61.69-5,92h86c3.72-11.19,9.42-22.02,14.99-32.51,4.79-.3,37.03-1.46,38.12.11l11.39,32.41h18.5l-32.16-90.34c-.39-1.25-1.16-1.45-2.33-1.67-2.06-.39-21.4-.42-22.35.18l-46.67,89.83c-2.25.42-1.39-.99-1.5-2.49-.21-3.05.22-5.61,1.01-8.5-6.32.17-39.97,2.71-43.06.56-2.69-1.88-.06-20.94.1-25.02.74-18.17.73-36.58,2.96-54.54ZM457.04,414.05h-19l-4,92h19l4-92ZM514.04,414.05h-20.5c-2.74,0-28.57,38.79-34.35,42.65l32.85,49.35h23l-36.05-49.45,35.05-42.55ZM709.04,414.05h-24l-4,92h17l2.51-70.01c1.4-.17,2.19,1.1,2.93,2.07,11.91,15.64,25.09,39.69,35.98,57.02,2.14,3.42,4.58,6.93,5.58,10.92h24l5-92h-17l-3.51,71.01-2.93-2.07-41.56-68.94ZM1069.04,417.05h-9v46.5c0,.33-1.32,1.52-1,2.5h-34v-38h-8v37c-.98-.32-2.17,1-2.5,1h-28c-.11,0-1.5-1.39-1.5-1.5v-46.5h-8.01s-.99,58-.99,58h93v-59ZM976.04,526.55c-.9,11.45.66,23.94,0,35.5h93v-9h-39.5c-.11,0-1.5-1.39-1.5-1.5v-27.5l40.01-16.49c2.06-1.7.58-7.78.99-10.5l-43.38,17.08c-8.22-24.12-42.95-21.89-48.18,2.85-.49,2.31-1.25,7.3-1.43,9.57ZM1031.04,630.05v-23.5c0-30.93-42.93-38.29-52.69-10.69-.81,2.3-2.31,10.53-2.31,12.69v31.5h93c-.07-1.87.69-10-1.5-10h-36.5Z"/>
      <path class="cls-1" d="M313.83,92.34c8.18-.34,18.67,1.13,26.41,4,1.51.56,14.23,7.55,14.81,8.19s1.01,1.12.99,2.01l-.16,103.84c-9.35,6.98-22.67,12.69-34.34,13.65-87.08,7.15-97.56-127.98-7.7-131.69Z"/>
      <path class="cls-1" d="M422.38,109.39c3.14-2.92,12.65-9.02,16.68-10.83,22.31-10,46.98-8.02,67.06,5.91l-.09,107.07c-9.53,6.3-20.29,10.87-31.74,12.25-62.26,7.52-97.27-72.21-51.91-114.4Z"/>
      <path class="cls-1" d="M156.04,224.05l23-28.48c-.48-2.42-7.44-1.26-9.49-1.54-19.53-2.62-36.04-14.28-42.79-33.21-16.51-46.29,31.8-85.37,74.34-63.17l-.08,94.87-26.48,31.52h-18.5Z"/>
      <path class="cls-1" d="M185.04,414.05c-2.23,17.96-2.21,36.37-2.96,54.54-.17,4.08-2.8,23.15-.1,25.02,3.09,2.15,36.74-.39,43.06-.56-.78,2.89-1.22,5.44-1.01,8.5.11,1.5-.75,2.9,1.5,2.49l46.67-89.83c.95-.59,20.3-.56,22.35-.18,1.16.22,1.94.42,2.33,1.67l32.16,90.34h-18.5l-11.39-32.41c-1.1-1.57-33.33-.4-38.12-.11-5.57,10.49-11.27,21.32-14.99,32.51h-86c3.69-30.31,4.58-61.33,5-92h20ZM295.04,460.05c-3.39-9.07-5.84-22.17-9.94-30.56-.63-1.29-.68-2.46-2.55-2.45s-13.54,29.28-15.51,33.01h28Z"/>
      <path class="cls-1" d="M709.04,414.05l41.56,68.94,2.93,2.07,3.51-71.01h17l-5,92h-24c-1.01-3.99-3.44-7.5-5.58-10.92-10.88-17.34-24.07-41.39-35.98-57.02-.74-.97-1.53-2.25-2.93-2.07l-2.51,70.01h-17l4-92h24Z"/>
      <path class="cls-1" d="M604.8,413.3c35.04-4.39,63.55,13.45,60.28,51.28-2.88,33.3-33.38,46.4-63.42,42.35-57.99-7.83-52.74-86.63,3.14-93.63ZM609.81,425.33c-21.67,2.35-31.78,22.09-29.77,42.21,3.28,32.76,52.48,37.57,63.77,6.78,9.36-25.52-4.93-52.14-34-48.99Z"/>
      <path class="cls-1" d="M124.54,414.05c7.76,1.04,15.27,5.82,17.44,13.56,3.55,12.68-.56,22.95-12.25,28.66-1.23.6-6.12,1.19-3.69,3.77.3.31,5.75.64,8.36,2.15,15.04,8.75,12.08,34.18-3.83,40.87-2.34.99-9.86,2.98-12.02,2.98h-49.5l3-92h52.5ZM90.54,453.05c2.93.91,17.52,0,22,0,3.31,0,9.39-4.86,10.89-8.11,10.12-21.82-19.04-21.27-32.46-19.46-1.78,1.24-.79,14.88-.89,18.11-.07,2.39-2.53,8.53.46,9.46ZM88.04,470.55c-.83,6.48,0,16.09,0,23,0,.11,1.39,1.5,1.5,1.5h20c.57,0,8.23-2.21,9.18-2.77,10.78-6.29,10.41-23.5-2.42-26.99-3.75-1.02-25.35-2.42-26.8-.28-.16.24-1.38,4.91-1.46,5.54Z"/>
      <path class="cls-1" d="M1069.04,310.05v9h-81v2.98s80.89,29.12,80.89,29.12c.12,2.63,1.08,6.52-1.57,7.72l-80.32,31.18h80.5c2.14,0,2.14,9,0,9h-90.5v-17l74.01-27.51-3.01-2.99-71-25.5v-16h92Z"/>
      <path class="cls-1" d="M1069.04,85.05h-81l1.72,2.78,78.69,29.1c1.02.7,1.09,6.47,0,7.23l-81.41,29.9c-.32.31,1.29,1.99,1.5,1.99h80.5v8h-92v-15.5l71.56-27.44,2.45-2.55-74.01-28.01v-15.5h90.5c2.19,0,1.43,8.13,1.5,10Z"/>
      <path class="cls-1" d="M418.04,415.05v14c-24.55-8.86-56.06-1.18-58.99,28.51-3.49,35.36,29.01,42.72,56.99,34.49-.17,3.08-.29,12.21-2.99,13.51-5.23,2.51-17.28.52-23.36,2.42-31.34-1.14-53.12-19.02-49.38-52.16,4.53-40.09,44.13-47.58,77.72-40.78Z"/>
      <path class="cls-1" d="M976.04,526.55c.18-2.27.94-7.26,1.43-9.57,5.23-24.74,39.97-26.97,48.18-2.85l43.38-17.08c-.41,2.72,1.07,8.81-.99,10.5l-40.01,16.49v27.5c0,.11,1.39,1.5,1.5,1.5h39.5v9h-93c.66-11.56-.9-24.05,0-35.5ZM1020.04,552.05v-29.5c0-.54-1.7-4.88-2.16-5.84-5.05-10.51-20.57-13.2-28.49-4.31-1.01,1.13-4.35,8.2-4.35,9.15v30.5h35Z"/>
      <path class="cls-1" d="M67.04,232.05c3.24.36,7.91-.99,10.57.93,10.16,12.86,18.17,29.11,28.14,41.8.64.82-.04,1.83,2.29,1.27v-44h13v68l-14-.5c-10.19-14.3-18.77-30.11-30-43.5v44h-10v-68Z"/>
      <path class="cls-1" d="M1069.04,417.05v59h-93l.99-58.01h8.01v46.51c0,.11,1.39,1.5,1.5,1.5h28c.33,0,1.52-1.32,2.5-1v-37h8v38h34c-.32-.98,1-2.17,1-2.5v-46.5h9Z"/>
      <path class="cls-1" d="M1031.04,630.05h36.5c2.19,0,1.43,8.13,1.5,10h-93v-31.5c0-2.16,1.49-10.39,2.31-12.69,9.76-27.6,52.69-20.23,52.69,10.69v23.5ZM1022.04,630.05v-27.5c0-1.41-3.77-7.62-5.1-8.9-6.99-6.75-20.47-6.28-27.29.51-1.07,1.07-4.61,6.24-4.61,7.39v28.5h37Z"/>
      <path class="cls-1" d="M83.04,224.05h-16v-86.5c0-4.96-10.61,6.07-13,5.5v-15.5c0-1.78,25.9-17.4,29-20.5v117Z"/>
      <path class="cls-1" d="M259.04,232.05v25.5c0,.11,1.39,1.5,1.5,1.5h22c.11,0,1.5-1.39,1.5-1.5v-25.5h12v68h-12v-28.5c0-.11-1.39-1.5-1.5-1.5h-23.5v30h-12v-68h12Z"/>
      <path class="cls-1" d="M514.04,414.05l-35.05,42.55,36.05,49.45h-23l-32.85-49.35c5.79-3.86,31.61-42.65,34.35-42.65h20.5Z"/>
      <path class="cls-1" d="M977.04,251.05v-10h68.5c.39,0,6.66-2.14,7.43-2.57,11.21-6.33,12-27.46,3.47-36.33-1.64-1.71-10.03-6.1-11.9-6.1h-67.5v-8h65.5c26.23,0,36.06,36,20.92,53.92-3.54,4.19-13.6,9.08-18.92,9.08h-67.5Z"/>
      <path class="cls-1" d="M233.04,267.05c-1.66,28.33-33.4,43.2-55.91,24.41-27.25-22.74-3.39-68.35,31.93-57.93,6.96,2.05,11.29,7.09,16.98,10.54-8.68,10.54-5.62,6.65-12.04,1.52-6.02-4.81-16.51-5.08-23.51-2.58-18.32,6.53-21.3,31.72-5.95,43.05,11.45,8.45,29.52,5.3,35.5-8h-20v-11h33Z"/>
      <polygon class="cls-1" points="457.04 414.05 453.04 506.05 434.04 506.05 438.04 414.05 457.04 414.05"/>
      <path class="cls-1" d="M536.04,232.05v11h-24.5c-2.26,0-2.26,15,0,15h24.5v11h-24.5c-.11,0-1.5,1.39-1.5,1.5v18c0,.11,1.39,1.5,1.5,1.5h24.5v10h-37v-68h37Z"/>
      <path class="cls-1" d="M103.04,94.05v130h-11v-124c4.22-.88,7.1-5.36,11-6Z"/>
      <path class="cls-1" d="M486.04,232.05v11h-22c-1.16,2.43-2.02,16,.5,16h21.5v10h-21.5c-.11,0-1.5,1.39-1.5,1.5v29.5h-11v-68h34Z"/>
      <path class="cls-1" d="M364.04,203.05v-90l8.65,10.85c14.49,25.35,11.99,58.06-8.65,79.15Z"/>
      <path class="cls-1" d="M344.04,232.05v11.01c-2.25.25-13-.96-13,1.49v55.5h-12v-55.5c0-2.38-9.87-1.3-12.01-1.49v-11.01h37.01Z"/>
      <path class="cls-1" d="M516.04,202.05v-88c22.81,23.45,23.1,64.58,0,88Z"/>
      <path class="cls-1" d="M394.04,232.05v56.5c0,.11,1.39,1.5,1.5,1.5h18.5v10h-32v-68h12Z"/>
      <path class="cls-1" d="M209.04,181.05v-77c22.76,19.53,24.11,58.08,0,77Z"/>
      <path class="cls-1" d="M1069.04,275.05c-.07,1.88.69,10-1.5,10h-90.5v-10h92Z"/>
      <rect class="cls-1" x="424.04" y="232.05" width="12" height="68"/>
      <rect class="cls-1" x="137.04" y="232.05" width="12" height="68"/>
      <path class="cls-2" d="M295.04,460.05h-28c1.97-3.73,13.69-33.01,15.51-33.01s1.92,1.16,2.55,2.45c4.1,8.39,6.55,21.49,9.94,30.56Z"/>
      <path class="cls-2" d="M609.81,425.33c29.07-3.15,43.36,23.47,34,48.99-11.29,30.79-60.48,25.98-63.77-6.78-2.02-20.12,8.09-39.86,29.77-42.21Z"/>
      <path class="cls-2" d="M88.04,470.55c.08-.64,1.3-5.31,1.46-5.54,1.45-2.14,23.05-.74,26.8.28,12.83,3.49,13.2,20.7,2.42,26.99-.95.56-8.61,2.77-9.18,2.77h-20c-.11,0-1.5-1.39-1.5-1.5,0-6.91-.83-16.52,0-23Z"/>
      <path class="cls-2" d="M90.54,453.05c-2.99-.93-.53-7.07-.46-9.46.1-3.22-.89-16.86.89-18.11,13.41-1.82,42.58-2.36,32.46,19.46-1.51,3.25-7.58,8.11-10.89,8.11-4.48,0-19.07.91-22,0Z"/>
      <path class="cls-2" d="M1020.04,552.05h-35v-30.5c0-.95,3.34-8.02,4.35-9.15,7.92-8.89,23.44-6.2,28.49,4.31.46.95,2.16,5.3,2.16,5.84v29.5Z"/>
      <path class="cls-2" d="M1022.04,630.05h-37v-28.5c0-1.15,3.54-6.32,4.61-7.39,6.82-6.79,20.31-7.26,27.29-.51,1.32,1.28,5.1,7.49,5.1,8.9v27.5Z"/>
    </g>
  </g>
</svg>