<?xml version="1.0" encoding="utf-8"?>
<!-- Generator: Adobe Illustrator 23.0.0, SVG Export Plug-In . SVG Version: 6.00 Build 0)  -->
<svg version="1.1" id="Capa_1" xmlns="http://www.w3.org/2000/svg" xmlns:xlink="http://www.w3.org/1999/xlink" x="0px" y="0px"
	 viewBox="0 0 420 420" style="enable-background:new 0 0 420 420;" xml:space="preserve">
<style type="text/css">
	.st0{fill:none;stroke:#000000;stroke-width:1.824;stroke-miterlimit:10;}
	.st1{fill:#D1D3D4;}
	.st2{fill:#7C151E;}
	.st3{fill:#28397E;}
	.st4{fill:#931B1E;}
	.st5{fill:#DFB725;}
	.st6{fill:#0F4C90;}
	.st7{fill:none;}
	.st8{fill:#D1A72B;}
	.st9{display:none;}
	.st10{display:inline;fill:#0F4C90;}
</style>
<g id="Layer_1">
</g>
<g id="Layer_2">
</g>
<g id="Layer_3">
	<g>
		<g>
			<path class="st0" d="M254.5,211.3"/>
		</g>
		<g>
			<path class="st1" d="M238,238.3l-32.5-15.5l27.8-20.9C233.3,201.8,236.2,229.1,238,238.3z"/>
		</g>
		<g>
			<path class="st2" d="M197.7,225.4l41.3,19.3c0,0,9.6,122.6,54.4,136.2c5.9,1.8,18.9,11.5,50.5-15.3c-23.5,20.1-27.2,22.3-44.5,30
				C282.4,402.9,142.5,404.1,197.7,225.4z"/>
		</g>
		<g>
			<path class="st3" d="M197.9,215.4c0,0-22.3-196.3-174.5-88.5c0,0-44,79,0.9,168.3c11.5,22.6,18.4,32.3,18.4,32.3
				s-24.3-52.3-16.6-100.1c1.1-4.9,6.5-44.3,53.5-55.1c3.4,0.2,16.8-1,81.9,26.4c34.6,16,36.1,16.7,36.1,16.7
				S197.5,215.6,197.9,215.4z"/>
		</g>
		<g>
			<path class="st4" d="M199.7,226.3c-1.6-0.7-3.2-1.3-4.7-2c-1.1,0.7-2.2,1.4-3.4,2.1c-2.6,1.6-5.4,3.3-8.4,5.2c-3,1.8-5.9,4-9,6.1
				c-3.1,2.2-6.5,4.3-9.6,6.9c-3.2,2.5-6.5,5.2-9.9,7.9c-3.3,2.8-6.5,5.9-9.9,9c-1.7,1.5-3.2,3.2-4.8,4.9c-1.6,1.7-3.2,3.4-4.8,5.2
				c-1.7,1.7-3,3.7-4.5,5.6c-1.4,1.9-3,3.8-4.3,5.8c-1.3,2.1-2.5,4.2-3.8,6.3c-0.6,1.1-1.3,2.1-1.8,3.2l-1.5,3.4l-1.5,3.4
				c-0.5,1.1-1,2.3-1.3,3.5c-0.7,2.4-1.4,4.7-2.2,7.1L113,317c-0.3,1.2-0.2,2.5-0.2,3.7l0,3.7c0.2,9.9,3.1,19.7,7.7,28.3
				c4.6,8.6,10.7,16.3,17.4,22.8c6.7,6.5,13.9,12.1,21.1,16.9c7.2,4.6,14.3,8.7,21.1,11.9c3.4,1.7,6.7,3,9.9,4.4
				c3.2,1.2,6.2,2.5,9.1,3.3c2.9,1,5.6,1.8,8.1,2.5c1,0.3,1.9,0.5,2.8,0.7c24.7-0.2,49.7-0.6,91.8-21
				C160.3,408.7,199.7,226.3,199.7,226.3z"/>
			<path class="st4" d="M188.1,412.9c-3.2-1.5-6.6-2.9-10-4.6c-6.9-3.4-14.1-7.6-21.4-12.5c-7.3-5-14.5-10.9-21.4-17.7
				c-6.9-6.8-13-14.8-17.7-23.9c-4.6-9-7.5-19.3-7.5-29.7l0.1-3.9c0-1.3,0-2.6,0.3-3.9l1.3-7.6c0.8-2.4,1.6-4.9,2.3-7.3
				c0.3-1.2,0.9-2.4,1.4-3.5l1.6-3.4l1.6-3.4c0.6-1.1,1.3-2.1,1.9-3.2c1.3-2.1,2.6-4.2,4-6.3c1.4-2,3-3.9,4.5-5.8
				c1.6-1.9,2.9-3.9,4.6-5.6c1.6-1.7,3.3-3.4,4.9-5.1c1.6-1.7,3.2-3.4,4.9-4.9c3.5-3,6.7-6.1,10.1-8.9c3.5-2.7,6.8-5.3,10.1-7.8
				c3.2-2.6,6.6-4.6,9.8-6.8c3.2-2.1,6.1-4.3,9.1-6c3-1.8,5.8-3.5,8.5-5c1.1-0.6,2.1-1.3,3.2-1.9c-59.3-24.5-56.9-22.2-112.9-41.5
				c-84.4,29.5-19,169.1-19,169.1s44.7,57.2,131.1,63.4C191.8,414.3,190,413.6,188.1,412.9z"/>
		</g>
		<g>
			<path class="st5" d="M243.3,220.2c-0.1,3.1-0.1,3.1-0.1,3.1l-2.6-18.7c0,0,8,70.1,24.5,120.2c2.3,0.5,5.7,0.8,10.1,0.4
				c9.4-0.8,22.8-5.1,37.4-13.2c14.6-8.1,30.5-19.9,45-35.1c7.3-7.6,14.2-16,20.4-25.1c6.2-9.1,11.7-18.9,16.2-29.2
				c4.4-10.3,7.9-21,10.1-31.8c2.3-10.8,3.3-21.7,3.2-32.2c0-2.4-0.1-4.9-0.2-7.3c-7.2-23.8-19.8-50.3-41.5-75.8
				c-7.7-8.3-53.3-79.7-160.2-71.1c1.5,0.1,129.9,11.8,145.7,83.6C366.4,156.9,253.4,218,243.3,220.2z"/>
			<path class="st5" d="M409.1,157.5c0,0.3,0,0.6,0,0.9c0.2,10.6-0.7,21.7-2.8,32.6c-2.1,11-5.5,21.9-9.8,32.4
				c-4.4,10.5-9.8,20.6-16,29.9c-6.2,9.4-13.1,18-20.3,25.8c-14.5,15.7-30.5,27.9-45.4,36.4c-14.9,8.6-28.8,13.2-39.1,14.3
				c-3.4,0.4-6.3,0.3-8.8,0.1c9.5,27.1,21.7,47,36.6,44c35.4-7,97.3-35.7,111.4-141.1C414.9,233.1,420.6,200.3,409.1,157.5z"/>
		</g>
		<g>
			<path class="st6" d="M236.8,182.1c0.8-8,1.3-19.6-0.6-33.3c-1-6.8-2.6-14.1-5.1-21.6c-2.6-7.5-6.3-15-11-22.2
				c-4.7-7.2-11-13.7-18-19.4c-1.8-1.4-3.6-2.7-5.4-4.1c-1.9-1.3-3.9-2.4-5.8-3.6l-3-1.8c-1-0.6-2.1-1-3.1-1.5l-6.3-3
				c-2.1-0.9-4.3-1.6-6.5-2.5c-2.2-0.7-4.3-1.7-6.6-2.3c-2.2-0.6-4.5-1.2-6.7-1.8c-2.2-0.6-4.4-1.2-6.7-1.6
				c-2.3-0.4-4.5-0.8-6.7-1.3c-2.2-0.4-4.5-0.9-6.7-1c-4.5-0.5-8.9-1.1-13.2-1.4c-4.4-0.2-8.7-0.4-12.9-0.6
				c-4.2-0.1-8.3,0.1-12.4,0.1c-8,0-15.6,0.9-22.6,1.3c-2.7,0.2-5.3,0.5-7.9,0.8C59.1,71.5,51.2,81,46.4,87.6
				c-93.7,129.4-3.7,239.9-3.7,239.9C-9,197.4,63.3,176.9,76.6,172.7c17.6-5.5,121.1,42.7,121.1,42.7l36.7-23c-0.3-0.7,0,0,0,0
				s0.4-0.2,1.1-0.6C235.9,189.8,236.4,186.5,236.8,182.1z"/>
			<path class="st6" d="M317.2,71.8c-4.7-7.6-27.3-45.2-112.2-65.4l0,0C144.6,4,98.3,34.3,70.6,60.5c2.2-0.3,4.5-0.6,6.9-0.8
				c7-0.6,14.6-1.6,22.6-1.7c4-0.1,8.2-0.4,12.4-0.3c4.2,0.1,8.6,0.2,13,0.3c4.4,0.2,8.9,0.8,13.4,1.2c2.3,0.1,4.5,0.5,6.8,0.9
				c2.3,0.4,4.5,0.8,6.8,1.2c2.3,0.3,4.6,0.9,6.8,1.5c2.3,0.6,4.5,1.2,6.8,1.7c2.3,0.5,4.5,1.5,6.7,2.2c2.2,0.8,4.5,1.5,6.7,2.4
				l6.5,3c1.1,0.5,2.2,1,3.2,1.5l3.1,1.8c2,1.2,4.1,2.3,6.1,3.6c1.9,1.4,3.8,2.8,5.7,4.2c7.3,5.8,13.9,12.4,19,19.8
				c5.1,7.4,9,15.1,11.9,22.8c2.7,7.7,4.5,15.3,5.7,22.3c2.1,14.1,1.9,26.1,1.2,34.4c-0.2,2.4-0.4,4.5-0.6,6.3
				C265.9,174.7,348.7,122.4,317.2,71.8z"/>
		</g>
		<line class="st7" x1="240.1" y1="193.8" x2="240.2" y2="194.7"/>
		<g>
			<path class="st8" d="M205.7,4.3l1.5,0.2c33.6,5.4,117.1,26.2,128.2,90.2c4.2,31.8-30.1,79.1-95.2,106.3c1.3,11.3,3,22.4,3,22.4
				s105.3-44.7,110.5-117.1C354.6,92.8,353.6,18.7,205.7,4.3z"/>
		</g>
		<path class="st3" d="M197.9,215.4c0,0-22.3-196.3-174.5-88.5c0,0-44,79,0.9,168.3c11.5,22.6,18.4,32.3,18.4,32.3
			s-24.3-52.3-16.6-100.1c1.1-4.9,6.5-44.3,53.5-55.1c3.4,0.2,16.8-1,81.9,26.4c34.6,16,36.1,16.7,36.1,16.7
			S197.5,215.6,197.9,215.4z"/>
	</g>
</g>
<g id="Layer_4" class="st9">
	<path class="st10" d="M-117.6,249.9c0,0-8.5-19.8-5-33.5c3.3-11.5,11.1-15.3,17.4-16.3c0.3,0,6.9,0.7,15.8,4.5
		c10.9,4.6,21.5,9.4,21.5,9.4l12.2-7.6c0,0,0.8-4.8,0.6-6.7"/>
</g>
</svg>
