<?xml version="1.0" encoding="utf-8"?>
<!-- Generator: Adobe Illustrator 23.0.0, SVG Export Plug-In . SVG Version: 6.00 Build 0)  -->
<svg version="1.1" id="Capa_1" xmlns="http://www.w3.org/2000/svg" xmlns:xlink="http://www.w3.org/1999/xlink" x="0px" y="0px"
	 viewBox="0 0 420 420" style="enable-background:new 0 0 420 420;" xml:space="preserve">
<style type="text/css">
	.st0{fill:none;stroke:#000000;stroke-width:1.824;stroke-miterlimit:10;}
	.st1{fill:#D1D3D4;}
	.st2{fill:#7C151E;}
	.st3{fill:#28397E;}
	.st4{fill:#931B1E;}
	.st5{fill:#DFB725;}
	.st6{fill:#0F4C90;}
	.st7{fill:none;}
	.st8{fill:#D1A72B;}
	.st9{display:none;}
	.st10{display:inline;fill:#0F4C90;}
</style>
<g id="Layer_1">
</g>
<g id="Layer_2">
</g>
<g id="Layer_3">
	<g>
		<g>
			<path class="st0" d="M250.8,193.6"/>
		</g>
		<g>
			<path class="st1" d="M247.8,225.1l-36,0.4l15.8-31C227.6,194.3,242.2,217.6,247.8,225.1z"/>
		</g>
		<g>
			<path class="st2" d="M206,231.2l45.6-0.8c0,0,62.5,105.9,108.8,98.4c6.1-1,22,2,38.6-36c-12.3,28.4-14.6,32-26.8,46.5
				C360.1,353.4,235,416,206,231.2z"/>
		</g>
		<g>
			<path class="st3" d="M201.8,222.1c0,0-106.4-166.5-195.6-2.7c0,0-4.8,90.3,74.8,150.7c20.3,15.2,30.7,20.9,30.7,20.9
				s-44.8-36.3-58.9-82.6c-1.2-4.9-13.6-42.6,23.8-73c3.1-1.3,14.6-8.3,85.2-12.3c38.1-0.9,39.8-0.9,39.8-0.9
				S201.5,222.5,201.8,222.1z"/>
		</g>
		<g>
			<path class="st4" d="M208.2,231.1c-1.7,0.1-3.4,0.2-5.1,0.3c-0.7,1.1-1.4,2.2-2.1,3.4c-1.6,2.6-3.4,5.3-5.3,8.4
				c-1.9,2.9-3.5,6.2-5.4,9.4c-1.8,3.3-3.9,6.7-5.6,10.4c-1.8,3.7-3.6,7.5-5.4,11.4c-1.7,4-3.2,8.2-4.9,12.4
				c-0.9,2.1-1.5,4.3-2.2,6.5c-0.7,2.2-1.4,4.5-2,6.8c-0.8,2.3-1.1,4.6-1.6,7c-0.4,2.3-1,4.7-1.3,7.1c-0.2,2.5-0.4,4.9-0.6,7.3
				c-0.1,1.3-0.2,2.5-0.2,3.7l0.1,3.7l0.1,3.7c0,1.2,0.1,2.5,0.4,3.7c0.4,2.5,0.8,4.8,1.1,7.3l2,6.9c0.3,1.2,0.9,2.3,1.4,3.4
				l1.6,3.3c4.5,8.8,11.4,16.3,19.4,22c7.9,5.7,16.8,9.9,25.7,12.8c8.9,2.9,17.8,4.8,26.4,5.9c8.5,1,16.7,1.5,24.2,1.4
				c3.8,0,7.3-0.3,10.8-0.4c3.4-0.3,6.7-0.5,9.6-1c3-0.4,5.8-0.8,8.4-1.3c1-0.2,1.9-0.4,2.8-0.6c22.1-11,44.4-22.4,73.2-59.2
				C253,412.3,208.2,231.1,208.2,231.1z"/>
			<path class="st4" d="M279.8,403.8c-3.5,0.1-7.2,0.3-11,0.3c-7.7,0-16-0.6-24.7-1.8c-8.8-1.3-17.8-3.4-27-6.5
				c-9.2-3.1-18.2-7.6-26.4-13.7c-8.1-6.1-15.2-14-19.8-23.4l-1.6-3.5c-0.6-1.2-1.1-2.3-1.4-3.6l-2.2-7.4c-0.3-2.5-0.7-5.1-1.1-7.6
				c-0.3-1.2-0.2-2.6-0.3-3.8l-0.1-3.8l-0.1-3.8c0.1-1.3,0.2-2.5,0.3-3.7c0.2-2.5,0.5-4.9,0.8-7.4c0.4-2.4,1-4.8,1.5-7.2
				c0.6-2.4,0.9-4.8,1.7-7.1c0.7-2.2,1.5-4.5,2.2-6.7c0.7-2.2,1.4-4.5,2.2-6.6c1.8-4.2,3.3-8.4,5.2-12.4c2-4,3.8-7.8,5.6-11.4
				c1.7-3.7,3.9-7,5.8-10.4c2-3.3,3.6-6.5,5.5-9.4c1.9-2.9,3.7-5.7,5.4-8.2c0.7-1,1.3-2.1,2-3.1c-64,4.1-60.9,5.1-119.6,12.4
				c-62.8,63.6,57.3,160.2,57.3,160.2s65.3,31.7,145.6-0.7C283.8,403.4,281.8,403.6,279.8,403.8z"/>
		</g>
		<g>
			<path class="st5" d="M244.6,206.5c1.3,2.8,1.3,2.8,1.3,2.8l-10.6-15.7c0,0,38,59.4,74.9,97.2c2.3-0.6,5.5-1.8,9.2-4.1
				c8.1-4.9,18.2-14.6,27.8-28.3c9.5-13.7,18.6-31.3,25-51.3c3.2-10,5.7-20.6,7.3-31.5s2.2-22.1,1.7-33.3c-0.6-11.2-2.1-22.3-4.9-33
				c-2.7-10.7-6.6-20.9-11.3-30.3c-1.1-2.2-2.2-4.4-3.4-6.5C344.7,54.3,321.7,36,291,22.6c-10.6-4.1-82.9-48.1-175.1,6.6
				c1.4-0.6,121.8-46.5,167.6,11C327.3,95.5,252.7,200.1,244.6,206.5z"/>
			<path class="st5" d="M366,77.2c0.1,0.3,0.3,0.5,0.4,0.8c4.8,9.4,8.9,19.8,11.8,30.5c3,10.8,4.7,22.1,5.5,33.4
				c0.7,11.4,0.3,22.8-1.2,33.9c-1.4,11.2-3.8,21.9-6.9,32.1c-6.1,20.5-15.1,38.5-24.8,52.7c-9.6,14.3-20.1,24.5-28.8,30
				c-2.9,1.9-5.5,3-7.9,4c20.5,20.2,40.2,32.7,52.2,23.4c28.7-21.9,71.7-74.9,38-175.7C404.4,142.6,395.1,110.6,366,77.2z"/>
		</g>
		<g>
			<path class="st6" d="M222,175.1c-2.8-7.5-7.5-18.2-15.2-29.6c-3.9-5.7-8.5-11.5-14.1-17.2c-5.6-5.6-12.3-10.7-19.6-15.1
				c-7.4-4.4-15.9-7.5-24.7-9.5c-2.2-0.5-4.4-0.8-6.7-1.3c-2.3-0.3-4.6-0.4-6.8-0.7l-3.5-0.3c-1.2-0.1-2.3,0-3.4,0l-7,0.1
				c-2.3,0.1-4.6,0.5-6.9,0.6c-2.3,0.3-4.6,0.4-6.9,0.8c-2.2,0.4-4.6,0.9-6.8,1.3c-2.2,0.4-4.5,0.9-6.7,1.5
				c-2.2,0.7-4.4,1.3-6.6,1.8c-2.2,0.6-4.4,1.2-6.5,2c-4.3,1.5-8.5,2.9-12.5,4.5c-4,1.8-8,3.5-11.8,5.1c-3.8,1.8-7.4,3.7-11.1,5.5
				c-7.2,3.5-13.6,7.7-19.7,11.1c-2.3,1.4-4.5,2.8-6.7,4.2C13.8,154,10.9,166,9.5,174c-27.2,157.4,102.2,217.1,102.2,217.1
				C8,297,63.9,246.8,74,237.1c13.4-12.7,127.5-14.9,127.5-14.9l22.8-36.8c-0.6-0.5,0,0,0,0s0.3-0.4,0.7-1
				C224.6,182.4,223.6,179.2,222,175.1z"/>
			<path class="st6" d="M245.7,40.7c-7.6-4.8-44.4-28.6-129.5-9.4l0,0c-55.3,24.4-83.6,72-96.9,107.7c1.8-1.2,3.8-2.5,5.8-3.8
				c6-3.6,12.4-7.9,19.5-11.5c3.5-1.8,7.2-4,11-5.7c3.8-1.8,7.8-3.6,11.8-5.4c4-1.8,8.3-3.2,12.6-4.8c2.1-0.9,4.3-1.5,6.5-2.2
				s4.4-1.3,6.6-1.9c2.2-0.7,4.5-1.2,6.8-1.6c2.3-0.5,4.6-0.9,6.9-1.5c2.3-0.6,4.7-0.6,7-1c2.3-0.2,4.7-0.6,7.1-0.8l7.2-0.2
				c1.2,0,2.4-0.1,3.5-0.1l3.6,0.3c2.3,0.2,4.7,0.3,7.1,0.5c2.3,0.4,4.6,0.8,7,1.3c9.1,2,17.9,5,25.8,9.4s14.7,9.6,20.7,15.2
				c5.8,5.7,10.8,11.8,14.9,17.5c8.1,11.7,13.2,22.6,16.2,30.4c0.9,2.2,1.6,4.2,2.2,5.9C244.9,155.7,296.3,72.3,245.7,40.7z"/>
		</g>
		<line class="st7" x1="230.2" y1="184.2" x2="230.6" y2="184.9"/>
		<g>
			<path class="st8" d="M115.9,29.1l1.4-0.5c32.6-9.9,116.7-28,154.8,24.6c17.8,26.7,7.8,84.3-38.7,137.3
				c6.1,9.6,12.5,18.8,12.5,18.8s74.9-86.5,47.7-153.8C288.6,43.1,255.1-23,115.9,29.1z"/>
		</g>
		<path class="st3" d="M201.8,222.1c0,0-106.4-166.5-195.6-2.7c0,0-4.8,90.3,74.8,150.7c20.3,15.2,30.7,20.9,30.7,20.9
			s-44.8-36.3-58.9-82.6c-1.2-4.9-13.6-42.6,23.8-73c3.1-1.3,14.6-8.3,85.2-12.3c38.1-0.9,39.8-0.9,39.8-0.9
			S201.5,222.5,201.8,222.1z"/>
	</g>
</g>
<g id="Layer_4" class="st9">
	<path class="st10" d="M-117.6,249.9c0,0-8.5-19.8-5-33.5c3.3-11.5,11.1-15.3,17.4-16.3c0.3,0,6.9,0.7,15.8,4.5
		c10.9,4.6,21.5,9.4,21.5,9.4l12.2-7.6c0,0,0.8-4.8,0.6-6.7"/>
</g>
</svg>
